<svg width="40" height="40" viewBox="0 0 40 40" fill="none" xmlns="http://www.w3.org/2000/svg">
<path d="M7.30376 0.174561C3.2578 0.174561 0 3.36417 0 7.32543V32.1864C0 36.1477 3.2578 39.3373 7.30376 39.3373H21.0663V24.0271H16.9313V18.515H21.0663V13.8056C21.0663 10.1057 23.5094 6.70862 29.1375 6.70862C31.4162 6.70862 33.1013 6.9228 33.1013 6.9228L32.9688 12.0703C32.9688 12.0703 31.2502 12.0544 29.375 12.0544C27.3454 12.0544 27.02 12.9699 27.02 14.4898V18.515H33.13L32.8638 24.0271H27.02V39.3373H32.6962C36.7422 39.3373 40 36.1477 40 32.1865V7.32547C40 3.3642 36.7422 0.1746 32.6962 0.1746H7.30372L7.30376 0.174561Z" fill="white"/>
</svg>
