<svg width="40" height="40" viewBox="0 0 40 40" fill="none" xmlns="http://www.w3.org/2000/svg">
<path d="M26.4 19.7559C26.4 20.9953 26.0246 22.2067 25.3214 23.2372C24.6182 24.2676 23.6186 25.0708 22.4492 25.545C21.2797 26.0193 19.9929 26.1434 18.7514 25.9016C17.5099 25.6598 16.3696 25.063 15.4745 24.1867C14.5795 23.3104 13.9699 22.1939 13.723 20.9784C13.476 19.7629 13.6028 18.503 14.0872 17.358C14.5716 16.2131 15.3919 15.2344 16.4444 14.5459C17.4968 13.8574 18.7342 13.4899 20 13.4899C21.6958 13.4951 23.3206 14.1569 24.5197 15.3309C25.7187 16.5049 26.3947 18.0957 26.4 19.7559ZM40 11.1401V28.3718C40 31.28 38.82 34.0691 36.7196 36.1256C34.6192 38.182 31.7704 39.3373 28.8 39.3373H11.2C8.22958 39.3373 5.38081 38.182 3.2804 36.1256C1.18 34.0691 0 31.28 0 28.3718V11.1401C0 8.23188 1.18 5.44275 3.2804 3.3863C5.38081 1.32986 8.22958 0.174561 11.2 0.174561H28.8C31.7704 0.174561 34.6192 1.32986 36.7196 3.3863C38.82 5.44275 40 8.23188 40 11.1401ZM29.6 19.7559C29.6 17.897 29.037 16.0798 27.9821 14.5341C26.9272 12.9884 25.4279 11.7837 23.6738 11.0723C21.9196 10.3609 19.9894 10.1748 18.1271 10.5375C16.2649 10.9001 14.5544 11.7953 13.2118 13.1098C11.8692 14.4243 10.9549 16.099 10.5845 17.9223C10.214 19.7455 10.4042 21.6354 11.1308 23.3528C11.8574 25.0703 13.0878 26.5382 14.6665 27.571C16.2452 28.6038 18.1013 29.155 20 29.155C22.5461 29.155 24.9879 28.1648 26.7882 26.4021C28.5886 24.6394 29.6 22.2487 29.6 19.7559ZM32.8 9.57362C32.8 9.10888 32.6592 8.65458 32.3955 8.26817C32.1318 7.88175 31.757 7.58057 31.3184 7.40272C30.8799 7.22488 30.3973 7.17834 29.9318 7.26901C29.4662 7.35967 29.0386 7.58347 28.7029 7.91209C28.3673 8.24071 28.1387 8.6594 28.0461 9.11521C27.9535 9.57102 28.001 10.0435 28.1827 10.4728C28.3643 10.9022 28.672 11.2692 29.0666 11.5274C29.4613 11.7856 29.9253 11.9234 30.4 11.9234C31.0365 11.9234 31.647 11.6758 32.0971 11.2352C32.5471 10.7945 32.8 10.1968 32.8 9.57362Z" fill="white"/>
</svg>
